<svg width="1347" height="346" viewBox="0 0 1347 346" fill="none" xmlns="http://www.w3.org/2000/svg">
<path d="M0 10C0 4.47716 4.47715 0 10 0H336C341.523 0 346 4.47715 346 10V336C346 341.523 341.523 346 336 346H10C4.47716 346 0 341.523 0 336V10Z" fill="#0487D9"/>
<path d="M70.9051 48H48V156.333H81.3333V105.569L273.765 298H298V189.667H264.667V241.762L70.9051 48Z" fill="white"/>
<path d="M204.38 81.3333H264.667V156.333H298V48H171.047L204.38 81.3333Z" fill="white"/>
<path d="M48 298V189.667H81.3333V264.667H141.62L174.953 298H48Z" fill="white"/>
<path d="M406 73.9125C415.267 71.2653 427.315 68.7505 442.143 66.3679C456.971 63.9854 473.388 62.7942 491.393 62.7942C508.339 62.7942 522.505 65.1767 533.891 69.9417C545.277 74.442 554.279 80.9277 560.899 89.3989C567.783 97.6053 572.549 107.665 575.197 119.577C578.11 131.225 579.566 144.064 579.566 158.095V274.838H531.508V165.639C531.508 154.521 530.714 145.123 529.125 137.446C527.801 129.505 525.418 123.151 521.976 118.386C518.798 113.356 514.297 109.783 508.472 107.665C502.911 105.282 496.027 104.091 487.818 104.091C481.728 104.091 475.374 104.488 468.754 105.282C462.134 106.076 457.236 106.738 454.058 107.268V274.838H406V73.9125Z" fill="#353535"/>
<path d="M593.717 171.993C593.717 153.727 596.365 137.711 601.66 123.945C607.221 110.18 614.502 98.7966 623.505 89.796C632.508 80.5307 642.834 73.6478 654.485 69.1475C666.135 64.3825 678.051 62 690.231 62C718.827 62 741.069 70.8683 756.956 88.6047C773.108 106.341 781.184 132.814 781.184 168.022C781.184 170.669 781.052 173.713 780.787 177.155C780.787 180.332 780.655 183.243 780.39 185.891H643.364C644.688 202.568 650.513 215.54 660.84 224.805C671.431 233.806 686.656 238.306 706.515 238.306C718.165 238.306 728.757 237.247 738.289 235.129C748.086 233.012 755.765 230.761 761.325 228.379L767.68 267.69C765.032 269.014 761.325 270.47 756.559 272.058C752.058 273.382 746.762 274.573 740.672 275.632C734.847 276.956 728.492 278.015 721.608 278.809C714.723 279.603 707.706 280 700.557 280C682.287 280 666.4 277.353 652.896 272.058C639.392 266.499 628.271 258.954 619.533 249.424C610.795 239.63 604.308 228.247 600.072 215.275C595.835 202.039 593.717 187.611 593.717 171.993ZM733.126 150.55C733.126 143.932 732.199 137.711 730.346 131.887C728.492 125.798 725.712 120.636 722.005 116.401C718.563 111.9 714.194 108.459 708.898 106.077C703.867 103.429 697.777 102.106 690.628 102.106C683.214 102.106 676.727 103.562 671.166 106.474C665.606 109.121 660.84 112.695 656.868 117.195C653.161 121.695 650.248 126.857 648.13 132.681C646.012 138.505 644.555 144.461 643.761 150.55H733.126Z" fill="#353535"/>
<path d="M894.892 135.064L938.978 67.1621H989.42L921.105 165.242C935.404 183.773 949.04 202.568 962.015 221.628C975.254 240.424 986.11 258.16 994.583 274.838H942.553C940.17 269.808 936.992 264.117 933.021 257.763C929.314 251.145 925.209 244.395 920.708 237.512C916.472 230.364 911.97 223.349 907.204 216.466C902.438 209.583 897.804 203.098 893.303 197.009C884.035 208.922 874.9 222.158 865.898 236.718C857.16 251.013 849.878 263.72 844.053 274.838H794.803C798.775 266.896 803.541 258.425 809.101 249.424C814.662 240.424 820.62 231.291 826.974 222.026C833.329 212.495 839.816 203.098 846.436 193.832C853.32 184.302 860.072 175.302 866.692 166.831L797.98 67.1621H850.805L894.892 135.064Z" fill="#353535"/>
<path d="M1180.98 268.485C1171.71 270.867 1159.66 273.25 1144.83 275.632C1130.01 278.279 1113.72 279.603 1095.98 279.603C1079.3 279.603 1065.27 277.22 1053.88 272.455C1042.76 267.69 1033.76 261.072 1026.87 252.601C1020.25 244.13 1015.49 234.07 1012.57 222.423C1009.66 210.51 1008.2 197.539 1008.2 183.508V67.1621H1056.26V175.964C1056.26 198.2 1059.44 214.084 1065.8 223.614C1072.42 233.144 1083.8 237.909 1099.95 237.909C1105.78 237.909 1111.87 237.644 1118.22 237.115C1124.84 236.585 1129.74 235.924 1132.92 235.129V67.1621H1180.98V268.485Z" fill="#353535"/>
<path d="M1262.4 240.291C1275.11 240.291 1284.38 238.835 1290.2 235.924C1296.03 232.747 1298.94 227.452 1298.94 220.04C1298.94 213.157 1295.76 207.466 1289.41 202.965C1283.32 198.465 1273.12 193.568 1258.83 188.273C1250.09 185.097 1242.01 181.787 1234.6 178.346C1227.45 174.64 1221.23 170.404 1215.93 165.639C1210.64 160.874 1206.4 155.183 1203.22 148.565C1200.31 141.682 1198.85 133.343 1198.85 123.548C1198.85 104.488 1205.87 89.5313 1219.9 78.6776C1233.94 67.5592 1253 62 1277.1 62C1289.28 62 1300.93 63.1913 1312.05 65.5738C1323.17 67.6915 1331.51 69.8093 1337.07 71.9271L1328.33 110.842C1323.04 108.459 1316.28 106.341 1308.08 104.488C1299.87 102.37 1290.34 101.311 1279.48 101.311C1269.68 101.311 1261.74 103.032 1255.65 106.474C1249.56 109.65 1246.51 114.68 1246.51 121.563C1246.51 125.004 1247.04 128.049 1248.1 130.696C1249.43 133.343 1251.55 135.858 1254.46 138.24C1257.37 140.358 1261.21 142.608 1265.98 144.991C1270.74 147.109 1276.57 149.359 1283.45 151.741C1294.84 155.977 1304.5 160.213 1312.45 164.448C1320.39 168.419 1326.88 173.052 1331.91 178.346C1337.2 183.376 1341.04 189.2 1343.43 195.818C1345.81 202.436 1347 210.378 1347 219.643C1347 239.497 1339.59 254.587 1324.76 264.911C1310.19 274.97 1289.28 280 1262 280C1243.73 280 1229.04 278.412 1217.92 275.235C1206.8 272.323 1198.99 269.941 1194.48 268.087L1202.82 227.982C1209.97 230.894 1218.45 233.673 1228.24 236.321C1238.31 238.968 1249.69 240.291 1262.4 240.291Z" fill="#353535"/>
</svg>
